<svg width="239" height="24" viewBox="0 0 239 24" fill="none" xmlns="http://www.w3.org/2000/svg">
<path d="M22.272 0.599998L27.84 23H23.52L20.128 8.44H20.064L15.456 19.672H12.48L7.872 8.44H7.808L4.384 23H0.096L5.664 0.599998H8.864L13.92 13.336H13.984L19.072 0.599998H22.272ZM47.7575 0.599998V14.168C47.7575 17.0267 46.9468 19.288 45.3255 20.952C43.7042 22.616 41.4428 23.448 38.5415 23.448C35.6188 23.448 33.3468 22.616 31.7255 20.952C30.1042 19.288 29.2935 17.0267 29.2935 14.168V0.599998H33.6135V13.912C33.6135 15.5333 34.0615 16.824 34.9575 17.784C35.8535 18.744 37.0482 19.224 38.5415 19.224C40.0348 19.224 41.2188 18.744 42.0935 17.784C42.9895 16.824 43.4375 15.5333 43.4375 13.912V0.599998H47.7575ZM52.8988 1.656C54.0721 0.631999 55.7148 0.119999 57.8268 0.119999C59.9388 0.119999 62.1254 0.642666 64.3868 1.688L62.6268 5.432C60.8348 4.51467 59.2454 4.056 57.8588 4.056C56.3014 4.056 55.5228 4.6 55.5228 5.688C55.5228 6.11467 55.6508 6.49867 55.9068 6.84C56.1628 7.16 56.6108 7.544 57.2508 7.992L61.1228 10.712C62.4241 11.608 63.3841 12.5467 64.0028 13.528C64.6428 14.488 64.9628 15.6507 64.9628 17.016C64.9628 19.1067 64.2801 20.7067 62.9148 21.816C61.5708 22.9253 59.7041 23.48 57.3148 23.48C54.4774 23.48 51.8961 22.7547 49.5708 21.304L51.3948 17.56C53.6134 18.8613 55.6294 19.512 57.4427 19.512C58.4668 19.512 59.2454 19.3093 59.7788 18.904C60.3334 18.4773 60.6108 17.9227 60.6108 17.24C60.6108 16.7067 60.4294 16.2267 60.0668 15.8C59.7041 15.3733 59.1281 14.872 58.3388 14.296L54.7228 11.704C52.3548 10.0827 51.1708 8.12 51.1708 5.816C51.1708 4.04533 51.7468 2.65867 52.8988 1.656ZM72.1463 0.599998V23H68.0182V0.599998H72.1463ZM87.274 23.48C83.7113 23.48 80.7993 22.4133 78.538 20.28C76.298 18.1253 75.178 15.2987 75.178 11.8C75.178 8.30133 76.298 5.48533 78.538 3.352C80.7993 1.19733 83.7113 0.119999 87.274 0.119999C90.2607 0.119999 92.9273 0.941332 95.274 2.584L92.906 6.168C91.1353 4.93067 89.2473 4.312 87.242 4.312C85.0233 4.312 83.1993 4.99467 81.77 6.36C80.362 7.72533 79.658 9.53867 79.658 11.8C79.658 14.0613 80.362 15.8747 81.77 17.24C83.1993 18.6053 85.0233 19.288 87.242 19.288C89.2473 19.288 91.1353 18.6693 92.906 17.432L95.274 21.016C92.9273 22.6587 90.2607 23.48 87.274 23.48ZM110.927 0.599998V19.128H120.271V23H106.831V0.599998H110.927ZM126.583 19.16H135.927V23H122.487V0.599998H135.767V4.44H126.583V8.92H134.967V12.696H126.583V19.16ZM160.747 10.328C160.768 10.6267 160.779 11.0533 160.779 11.608C160.779 13.2293 160.544 14.744 160.075 16.152C159.627 17.56 158.955 18.8187 158.059 19.928C157.163 21.0373 155.99 21.912 154.539 22.552C153.11 23.1707 151.478 23.48 149.643 23.48C146.166 23.48 143.318 22.424 141.099 20.312C138.902 18.1787 137.803 15.3413 137.803 11.8C137.803 8.32267 138.891 5.50667 141.067 3.352C143.264 1.19733 146.187 0.119999 149.835 0.119999C153.184 0.119999 156.086 1.112 158.539 3.096L155.819 6.584C154.006 5.06933 151.958 4.312 149.675 4.312C147.435 4.312 145.643 5.016 144.299 6.424C142.955 7.832 142.283 9.624 142.283 11.8C142.283 13.9973 142.966 15.8 144.331 17.208C145.718 18.5947 147.552 19.288 149.835 19.288C151.84 19.288 153.398 18.776 154.507 17.752C155.616 16.7067 156.246 15.4907 156.395 14.104H149.963V10.328H160.747ZM167.614 19.16H176.958V23H163.518V0.599998H176.798V4.44H167.614V8.92H175.998V12.696H167.614V19.16ZM199.147 0.599998V23H195.339L184.459 7.64H184.427V23H180.331V0.599998H184.139L195.019 15.992H195.051V0.599998H199.147ZM210.53 0.599998C213.965 0.599998 216.759 1.61333 218.914 3.64C221.09 5.64533 222.178 8.36533 222.178 11.8C222.178 15.2347 221.09 17.9653 218.914 19.992C216.759 21.9973 213.965 23 210.53 23H203.362V0.599998H210.53ZM210.722 4.376H207.458V19.224H210.722C212.813 19.224 214.509 18.5733 215.81 17.272C217.111 15.9707 217.762 14.1467 217.762 11.8C217.762 9.45333 217.111 7.62933 215.81 6.328C214.509 5.02667 212.813 4.376 210.722 4.376ZM226.149 1.656C227.322 0.631999 228.965 0.119999 231.077 0.119999C233.189 0.119999 235.375 0.642666 237.637 1.688L235.877 5.432C234.085 4.51467 232.495 4.056 231.109 4.056C229.551 4.056 228.773 4.6 228.773 5.688C228.773 6.11467 228.901 6.49867 229.157 6.84C229.413 7.16 229.861 7.544 230.501 7.992L234.373 10.712C235.674 11.608 236.634 12.5467 237.253 13.528C237.893 14.488 238.213 15.6507 238.213 17.016C238.213 19.1067 237.53 20.7067 236.165 21.816C234.821 22.9253 232.954 23.48 230.565 23.48C227.727 23.48 225.146 22.7547 222.821 21.304L224.645 17.56C226.863 18.8613 228.879 19.512 230.693 19.512C231.717 19.512 232.495 19.3093 233.029 18.904C233.583 18.4773 233.861 17.9227 233.861 17.24C233.861 16.7067 233.679 16.2267 233.317 15.8C232.954 15.3733 232.378 14.872 231.589 14.296L227.973 11.704C225.605 10.0827 224.421 8.12 224.421 5.816C224.421 4.04533 224.997 2.65867 226.149 1.656Z" fill="#F1F0F0"/>
</svg>
